<svg width="150" height="106" viewBox="0 0 150 106" fill="none" xmlns="http://www.w3.org/2000/svg">
<path d="M114.75 28.75H110.531L99.6797 4.33594C99.1886 3.23136 98.3877 2.29289 97.3741 1.63424C96.3605 0.975584 95.1776 0.625014 93.9688 0.625H48.0312C46.8224 0.625014 45.6395 0.975584 44.6259 1.63424C43.6123 2.29289 42.8114 3.23136 42.3203 4.33594L31.4687 28.75H27.25C26.4212 28.75 25.6263 29.0792 25.0403 29.6653C24.4542 30.2513 24.125 31.0462 24.125 31.875C24.125 32.7038 24.4542 33.4987 25.0403 34.0847C25.6263 34.6708 26.4212 35 27.25 35H30.375V66.25C30.375 67.9076 31.0335 69.4973 32.2056 70.6694C33.3777 71.8415 34.9674 72.5 36.625 72.5H46C47.6576 72.5 49.2473 71.8415 50.4194 70.6694C51.5915 69.4973 52.25 67.9076 52.25 66.25V60H89.75V66.25C89.75 67.9076 90.4085 69.4973 91.5806 70.6694C92.7527 71.8415 94.3424 72.5 96 72.5H105.375C107.033 72.5 108.622 71.8415 109.794 70.6694C110.967 69.4973 111.625 67.9076 111.625 66.25V35H114.75C115.579 35 116.374 34.6708 116.96 34.0847C117.546 33.4987 117.875 32.7038 117.875 31.875C117.875 31.0462 117.546 30.2513 116.96 29.6653C116.374 29.0792 115.579 28.75 114.75 28.75ZM48.0312 6.875H93.9688L103.691 28.75H38.3086L48.0312 6.875ZM46 66.25H36.625V60H46V66.25ZM96 66.25V60H105.375V66.25H96ZM105.375 53.75H36.625V35H105.375V53.75ZM42.875 44.375C42.875 43.5462 43.2042 42.7513 43.7903 42.1653C44.3763 41.5792 45.1712 41.25 46 41.25H52.25C53.0788 41.25 53.8737 41.5792 54.4597 42.1653C55.0458 42.7513 55.375 43.5462 55.375 44.375C55.375 45.2038 55.0458 45.9987 54.4597 46.5847C53.8737 47.1708 53.0788 47.5 52.25 47.5H46C45.1712 47.5 44.3763 47.1708 43.7903 46.5847C43.2042 45.9987 42.875 45.2038 42.875 44.375ZM86.625 44.375C86.625 43.5462 86.9542 42.7513 87.5403 42.1653C88.1263 41.5792 88.9212 41.25 89.75 41.25H96C96.8288 41.25 97.6237 41.5792 98.2097 42.1653C98.7958 42.7513 99.125 43.5462 99.125 44.375C99.125 45.2038 98.7958 45.9987 98.2097 46.5847C97.6237 47.1708 96.8288 47.5 96 47.5H89.75C88.9212 47.5 88.1263 47.1708 87.5403 46.5847C86.9542 45.9987 86.625 45.2038 86.625 44.375Z" fill="#2196F3"/>
<path d="M1.34766 80.4688H2.44336L5.23828 87.4238L8.02734 80.4688H9.12891L5.66016 89H4.80469L1.34766 80.4688ZM0.990234 80.4688H1.95703L2.11523 85.6719V89H0.990234V80.4688ZM8.51367 80.4688H9.48047V89H8.35547V85.6719L8.51367 80.4688ZM15.9305 81.2246L13.1062 89H11.952L15.2039 80.4688H15.948L15.9305 81.2246ZM18.2977 89L15.4676 81.2246L15.45 80.4688H16.1941L19.4578 89H18.2977ZM18.1512 85.8418V86.7676H13.3582V85.8418H18.1512ZM26.3473 86.8438C26.3473 86.6445 26.316 86.4688 26.2535 86.3164C26.1949 86.1602 26.0895 86.0195 25.9371 85.8945C25.7887 85.7695 25.5816 85.6504 25.316 85.5371C25.0543 85.4238 24.7223 85.3086 24.3199 85.1914C23.898 85.0664 23.5172 84.9277 23.1773 84.7754C22.8375 84.6191 22.5465 84.4414 22.3043 84.2422C22.0621 84.043 21.8766 83.8145 21.7477 83.5566C21.6187 83.2988 21.5543 83.0039 21.5543 82.6719C21.5543 82.3398 21.6227 82.0332 21.7594 81.752C21.8961 81.4707 22.0914 81.2266 22.3453 81.0195C22.6031 80.8086 22.9098 80.6445 23.2652 80.5273C23.6207 80.4102 24.0172 80.3516 24.4547 80.3516C25.0953 80.3516 25.6383 80.4746 26.0836 80.7207C26.5328 80.9629 26.8746 81.2812 27.109 81.6758C27.3434 82.0664 27.4605 82.4844 27.4605 82.9297H26.3355C26.3355 82.6094 26.2672 82.3262 26.1305 82.0801C25.9937 81.8301 25.7867 81.6348 25.5094 81.4941C25.232 81.3496 24.8805 81.2773 24.4547 81.2773C24.0523 81.2773 23.7203 81.3379 23.4586 81.459C23.1969 81.5801 23.0016 81.7441 22.8727 81.9512C22.7477 82.1582 22.6852 82.3945 22.6852 82.6602C22.6852 82.8398 22.7223 83.0039 22.7965 83.1523C22.8746 83.2969 22.9937 83.4316 23.1539 83.5566C23.318 83.6816 23.525 83.7969 23.775 83.9023C24.0289 84.0078 24.3316 84.1094 24.6832 84.207C25.1676 84.3438 25.5855 84.4961 25.9371 84.6641C26.2887 84.832 26.5777 85.0215 26.8043 85.2324C27.0348 85.4395 27.2047 85.6758 27.3141 85.9414C27.4273 86.2031 27.484 86.5 27.484 86.832C27.484 87.1797 27.4137 87.4941 27.273 87.7754C27.1324 88.0566 26.9312 88.2969 26.6695 88.4961C26.4078 88.6953 26.0934 88.8496 25.7262 88.959C25.3629 89.0645 24.9566 89.1172 24.5074 89.1172C24.1129 89.1172 23.7242 89.0625 23.3414 88.9531C22.9625 88.8438 22.6168 88.6797 22.3043 88.4609C21.9957 88.2422 21.7477 87.9727 21.5602 87.6523C21.3766 87.3281 21.2848 86.9531 21.2848 86.5273H22.4098C22.4098 86.8203 22.4664 87.0723 22.5797 87.2832C22.693 87.4902 22.8473 87.6621 23.0426 87.7988C23.2418 87.9355 23.4664 88.0371 23.7164 88.1035C23.9703 88.166 24.234 88.1973 24.5074 88.1973C24.902 88.1973 25.2359 88.1426 25.5094 88.0332C25.7828 87.9238 25.9898 87.7676 26.1305 87.5645C26.275 87.3613 26.3473 87.1211 26.3473 86.8438ZM33.2777 80.4688V89H32.1645V80.4688H33.2777ZM36.0199 80.4688V81.3945H29.4281V80.4688H36.0199ZM43.9055 88.0801V89H39.3879V88.0801H43.9055ZM39.6164 80.4688V89H38.4855V80.4688H39.6164ZM43.3078 84.1367V85.0566H39.3879V84.1367H43.3078ZM43.8469 80.4688V81.3945H39.3879V80.4688H43.8469ZM46.5059 80.4688H49.3301C49.9707 80.4688 50.5117 80.5664 50.9531 80.7617C51.3984 80.957 51.7363 81.2461 51.9668 81.6289C52.2012 82.0078 52.3184 82.4746 52.3184 83.0293C52.3184 83.4199 52.2383 83.7773 52.0781 84.1016C51.9219 84.4219 51.6953 84.6953 51.3984 84.9219C51.1055 85.1445 50.7539 85.3105 50.3438 85.4199L50.0273 85.543H47.373L47.3613 84.623H49.3652C49.7715 84.623 50.1094 84.5527 50.3789 84.4121C50.6484 84.2676 50.8516 84.0742 50.9883 83.832C51.125 83.5898 51.1934 83.3223 51.1934 83.0293C51.1934 82.7012 51.1289 82.4141 51 82.168C50.8711 81.9219 50.668 81.7324 50.3906 81.5996C50.1172 81.4629 49.7637 81.3945 49.3301 81.3945H47.6367V89H46.5059V80.4688ZM51.4922 89L49.418 85.1328L50.5957 85.127L52.6992 88.9297V89H51.4922ZM65.8453 84.4648V85.0039C65.8453 85.6445 65.7652 86.2188 65.6051 86.7266C65.4449 87.2344 65.2145 87.666 64.9137 88.0215C64.6129 88.377 64.2516 88.6484 63.8297 88.8359C63.4117 89.0234 62.943 89.1172 62.4234 89.1172C61.9195 89.1172 61.4566 89.0234 61.0348 88.8359C60.6168 88.6484 60.2535 88.377 59.9449 88.0215C59.6402 87.666 59.4039 87.2344 59.2359 86.7266C59.068 86.2188 58.984 85.6445 58.984 85.0039V84.4648C58.984 83.8242 59.066 83.252 59.2301 82.748C59.398 82.2402 59.6344 81.8086 59.9391 81.4531C60.2438 81.0938 60.6051 80.8203 61.023 80.6328C61.4449 80.4453 61.9078 80.3516 62.4117 80.3516C62.9313 80.3516 63.4 80.4453 63.818 80.6328C64.2398 80.8203 64.6012 81.0938 64.902 81.4531C65.2066 81.8086 65.4391 82.2402 65.5992 82.748C65.7633 83.252 65.8453 83.8242 65.8453 84.4648ZM64.7262 85.0039V84.4531C64.7262 83.9453 64.6734 83.4961 64.568 83.1055C64.4664 82.7148 64.316 82.3867 64.1168 82.1211C63.9176 81.8555 63.6734 81.6543 63.3844 81.5176C63.0992 81.3809 62.775 81.3125 62.4117 81.3125C62.0602 81.3125 61.7418 81.3809 61.4566 81.5176C61.1754 81.6543 60.9332 81.8555 60.7301 82.1211C60.5309 82.3867 60.3766 82.7148 60.2672 83.1055C60.1578 83.4961 60.1031 83.9453 60.1031 84.4531V85.0039C60.1031 85.5156 60.1578 85.9688 60.2672 86.3633C60.3766 86.7539 60.5328 87.084 60.7359 87.3535C60.943 87.6191 61.1871 87.8203 61.4684 87.957C61.7535 88.0938 62.0719 88.1621 62.4234 88.1621C62.7906 88.1621 63.1168 88.0938 63.402 87.957C63.6871 87.8203 63.9273 87.6191 64.1227 87.3535C64.3219 87.084 64.4723 86.7539 64.5738 86.3633C64.6754 85.9688 64.7262 85.5156 64.7262 85.0039ZM69.8695 80.4688V89H68.7387V80.4688H69.8695ZM73.4437 84.3066V85.2324H69.6234V84.3066H73.4437ZM74.0238 80.4688V81.3945H69.6234V80.4688H74.0238ZM81.8789 80.4688V89H80.748V80.4688H81.8789ZM85.4531 84.3066V85.2324H81.6328V84.3066H85.4531ZM86.0332 80.4688V81.3945H81.6328V80.4688H86.0332ZM88.5809 80.4688H91.4051C92.0457 80.4688 92.5867 80.5664 93.0281 80.7617C93.4734 80.957 93.8113 81.2461 94.0418 81.6289C94.2762 82.0078 94.3934 82.4746 94.3934 83.0293C94.3934 83.4199 94.3133 83.7773 94.1531 84.1016C93.9969 84.4219 93.7703 84.6953 93.4734 84.9219C93.1805 85.1445 92.8289 85.3105 92.4187 85.4199L92.1023 85.543H89.448L89.4363 84.623H91.4402C91.8465 84.623 92.1844 84.5527 92.4539 84.4121C92.7234 84.2676 92.9266 84.0742 93.0633 83.832C93.2 83.5898 93.2684 83.3223 93.2684 83.0293C93.2684 82.7012 93.2039 82.4141 93.075 82.168C92.9461 81.9219 92.743 81.7324 92.4656 81.5996C92.1922 81.4629 91.8387 81.3945 91.4051 81.3945H89.7117V89H88.5809V80.4688ZM93.5672 89L91.493 85.1328L92.6707 85.127L94.7742 88.9297V89H93.5672ZM103.744 84.4648V85.0039C103.744 85.6445 103.664 86.2188 103.504 86.7266C103.343 87.2344 103.113 87.666 102.812 88.0215C102.511 88.377 102.15 88.6484 101.728 88.8359C101.31 89.0234 100.841 89.1172 100.322 89.1172C99.818 89.1172 99.3551 89.0234 98.9332 88.8359C98.5152 88.6484 98.152 88.377 97.8434 88.0215C97.5387 87.666 97.3023 87.2344 97.1344 86.7266C96.9664 86.2188 96.8824 85.6445 96.8824 85.0039V84.4648C96.8824 83.8242 96.9645 83.252 97.1285 82.748C97.2965 82.2402 97.5328 81.8086 97.8375 81.4531C98.1422 81.0938 98.5035 80.8203 98.9215 80.6328C99.3434 80.4453 99.8063 80.3516 100.31 80.3516C100.83 80.3516 101.298 80.4453 101.716 80.6328C102.138 80.8203 102.5 81.0938 102.8 81.4531C103.105 81.8086 103.338 82.2402 103.498 82.748C103.662 83.252 103.744 83.8242 103.744 84.4648ZM102.625 85.0039V84.4531C102.625 83.9453 102.572 83.4961 102.466 83.1055C102.365 82.7148 102.214 82.3867 102.015 82.1211C101.816 81.8555 101.572 81.6543 101.283 81.5176C100.998 81.3809 100.673 81.3125 100.31 81.3125C99.9586 81.3125 99.6402 81.3809 99.3551 81.5176C99.0738 81.6543 98.8316 81.8555 98.6285 82.1211C98.4293 82.3867 98.275 82.7148 98.1656 83.1055C98.0563 83.4961 98.0016 83.9453 98.0016 84.4531V85.0039C98.0016 85.5156 98.0563 85.9688 98.1656 86.3633C98.275 86.7539 98.4313 87.084 98.6344 87.3535C98.8414 87.6191 99.0855 87.8203 99.3668 87.957C99.652 88.0938 99.9703 88.1621 100.322 88.1621C100.689 88.1621 101.015 88.0938 101.3 87.957C101.586 87.8203 101.826 87.6191 102.021 87.3535C102.22 87.084 102.371 86.7539 102.472 86.3633C102.574 85.9688 102.625 85.5156 102.625 85.0039ZM113.2 80.4688V89H112.063L107.768 82.4199V89H106.637V80.4688H107.768L112.08 87.0664V80.4688H113.2ZM119.38 80.4688V89H118.267V80.4688H119.38ZM122.122 80.4688V81.3945H115.53V80.4688H122.122ZM130.008 88.0801V89H125.49V88.0801H130.008ZM125.719 80.4688V89H124.588V80.4688H125.719ZM129.41 84.1367V85.0566H125.49V84.1367H129.41ZM129.949 80.4688V81.3945H125.49V80.4688H129.949ZM139.171 80.4688V89H138.034L133.739 82.4199V89H132.608V80.4688H133.739L138.052 87.0664V80.4688H139.171ZM144.683 89H142.902L142.914 88.0801H144.683C145.293 88.0801 145.8 87.9531 146.207 87.6992C146.613 87.4414 146.918 87.082 147.121 86.6211C147.328 86.1562 147.431 85.6133 147.431 84.9922V84.4707C147.431 83.9824 147.373 83.5488 147.255 83.1699C147.138 82.7871 146.966 82.4648 146.74 82.2031C146.513 81.9375 146.236 81.7363 145.908 81.5996C145.584 81.4629 145.211 81.3945 144.789 81.3945H142.867V80.4688H144.789C145.347 80.4688 145.857 80.5625 146.318 80.75C146.779 80.9336 147.175 81.2012 147.507 81.5527C147.843 81.9004 148.101 82.3223 148.281 82.8184C148.461 83.3105 148.55 83.8652 148.55 84.4824V84.9922C148.55 85.6094 148.461 86.166 148.281 86.6621C148.101 87.1543 147.841 87.5742 147.502 87.9219C147.166 88.2695 146.759 88.5371 146.283 88.7246C145.81 88.9082 145.277 89 144.683 89ZM143.505 80.4688V89H142.375V80.4688H143.505Z" fill="#F37E21"/>
<path d="M60.2988 102.109V103H54.7148V102.221L57.5098 99.1094C57.8535 98.7266 58.1191 98.4023 58.3066 98.1367C58.498 97.8672 58.6309 97.627 58.7051 97.416C58.7832 97.2012 58.8223 96.9824 58.8223 96.7598C58.8223 96.4785 58.7637 96.2246 58.6465 95.998C58.5332 95.7676 58.3652 95.584 58.1426 95.4473C57.9199 95.3105 57.6504 95.2422 57.334 95.2422C56.9551 95.2422 56.6387 95.3164 56.3848 95.4648C56.1348 95.6094 55.9473 95.8125 55.8223 96.0742C55.6973 96.3359 55.6348 96.6367 55.6348 96.9766H54.5508C54.5508 96.4961 54.6562 96.0566 54.8672 95.6582C55.0781 95.2598 55.3906 94.9434 55.8047 94.709C56.2188 94.4707 56.7285 94.3516 57.334 94.3516C57.873 94.3516 58.334 94.4473 58.7168 94.6387C59.0996 94.8262 59.3926 95.0918 59.5957 95.4355C59.8027 95.7754 59.9062 96.1738 59.9062 96.6309C59.9062 96.8809 59.8633 97.1348 59.7773 97.3926C59.6953 97.6465 59.5801 97.9004 59.4316 98.1543C59.2871 98.4082 59.1172 98.6582 58.9219 98.9043C58.7305 99.1504 58.5254 99.3926 58.3066 99.6309L56.0215 102.109H60.2988ZM68.0145 98.0547V99.3555C68.0145 100.055 67.952 100.645 67.827 101.125C67.702 101.605 67.5223 101.992 67.2879 102.285C67.0535 102.578 66.7703 102.791 66.4383 102.924C66.1102 103.053 65.7391 103.117 65.325 103.117C64.9969 103.117 64.6941 103.076 64.4168 102.994C64.1395 102.912 63.8895 102.781 63.6668 102.602C63.448 102.418 63.2605 102.18 63.1043 101.887C62.948 101.594 62.8289 101.238 62.7469 100.82C62.6648 100.402 62.6238 99.9141 62.6238 99.3555V98.0547C62.6238 97.3555 62.6863 96.7695 62.8113 96.2969C62.9402 95.8242 63.1219 95.4453 63.3562 95.1602C63.5906 94.8711 63.8719 94.6641 64.2 94.5391C64.532 94.4141 64.9031 94.3516 65.3133 94.3516C65.6453 94.3516 65.95 94.3926 66.2273 94.4746C66.5086 94.5527 66.7586 94.6797 66.9773 94.8555C67.1961 95.0273 67.3816 95.2578 67.534 95.5469C67.6902 95.832 67.8094 96.1816 67.8914 96.5957C67.9734 97.0098 68.0145 97.4961 68.0145 98.0547ZM66.9246 99.5312V97.873C66.9246 97.4902 66.9012 97.1543 66.8543 96.8652C66.8113 96.5723 66.7469 96.3223 66.6609 96.1152C66.575 95.9082 66.4656 95.7402 66.3328 95.6113C66.2039 95.4824 66.0535 95.3887 65.8816 95.3301C65.7137 95.2676 65.5242 95.2363 65.3133 95.2363C65.0555 95.2363 64.827 95.2852 64.6277 95.3828C64.4285 95.4766 64.2605 95.627 64.1238 95.834C63.991 96.041 63.8895 96.3125 63.8191 96.6484C63.7488 96.9844 63.7137 97.3926 63.7137 97.873V99.5312C63.7137 99.9141 63.7352 100.252 63.7781 100.545C63.825 100.838 63.8934 101.092 63.9832 101.307C64.073 101.518 64.1824 101.691 64.3113 101.828C64.4402 101.965 64.5887 102.066 64.7566 102.133C64.9285 102.195 65.118 102.227 65.325 102.227C65.5906 102.227 65.823 102.176 66.0223 102.074C66.2215 101.973 66.3875 101.814 66.5203 101.6C66.657 101.381 66.7586 101.102 66.825 100.762C66.8914 100.418 66.9246 100.008 66.9246 99.5312ZM76.1988 102.109V103H70.6148V102.221L73.4098 99.1094C73.7535 98.7266 74.0191 98.4023 74.2066 98.1367C74.398 97.8672 74.5309 97.627 74.6051 97.416C74.6832 97.2012 74.7223 96.9824 74.7223 96.7598C74.7223 96.4785 74.6637 96.2246 74.5465 95.998C74.4332 95.7676 74.2652 95.584 74.0426 95.4473C73.8199 95.3105 73.5504 95.2422 73.234 95.2422C72.8551 95.2422 72.5387 95.3164 72.2848 95.4648C72.0348 95.6094 71.8473 95.8125 71.7223 96.0742C71.5973 96.3359 71.5348 96.6367 71.5348 96.9766H70.4508C70.4508 96.4961 70.5562 96.0566 70.7672 95.6582C70.9781 95.2598 71.2906 94.9434 71.7047 94.709C72.1187 94.4707 72.6285 94.3516 73.234 94.3516C73.773 94.3516 74.234 94.4473 74.6168 94.6387C74.9996 94.8262 75.2926 95.0918 75.4957 95.4355C75.7027 95.7754 75.8062 96.1738 75.8062 96.6309C75.8062 96.8809 75.7633 97.1348 75.6773 97.3926C75.5953 97.6465 75.4801 97.9004 75.3316 98.1543C75.1871 98.4082 75.0172 98.6582 74.8219 98.9043C74.6305 99.1504 74.4254 99.3926 74.2066 99.6309L71.9215 102.109H76.1988ZM80.141 98.2012H80.9145C81.2934 98.2012 81.6059 98.1387 81.852 98.0137C82.102 97.8848 82.2875 97.7109 82.4086 97.4922C82.5336 97.2695 82.5961 97.0195 82.5961 96.7422C82.5961 96.4141 82.5414 96.1387 82.432 95.916C82.3227 95.6934 82.1586 95.5254 81.9398 95.4121C81.7211 95.2988 81.4438 95.2422 81.1078 95.2422C80.8031 95.2422 80.5336 95.3027 80.2992 95.4238C80.0688 95.541 79.8871 95.709 79.7543 95.9277C79.6254 96.1465 79.5609 96.4043 79.5609 96.7012H78.477C78.477 96.2676 78.5863 95.873 78.8051 95.5176C79.0238 95.1621 79.3305 94.8789 79.725 94.668C80.1234 94.457 80.5844 94.3516 81.1078 94.3516C81.6234 94.3516 82.0746 94.4434 82.4613 94.627C82.848 94.8066 83.1488 95.0762 83.3637 95.4355C83.5785 95.791 83.6859 96.2344 83.6859 96.7656C83.6859 96.9805 83.6352 97.2109 83.5336 97.457C83.4359 97.6992 83.2816 97.9258 83.0707 98.1367C82.8637 98.3477 82.5941 98.5215 82.2621 98.6582C81.9301 98.791 81.5316 98.8574 81.0668 98.8574H80.141V98.2012ZM80.141 99.0918V98.4414H81.0668C81.6098 98.4414 82.059 98.5059 82.4145 98.6348C82.7699 98.7637 83.0492 98.9355 83.2523 99.1504C83.4594 99.3652 83.6039 99.6016 83.6859 99.8594C83.7719 100.113 83.8148 100.367 83.8148 100.621C83.8148 101.02 83.7465 101.373 83.6098 101.682C83.477 101.99 83.2875 102.252 83.0414 102.467C82.7992 102.682 82.5141 102.844 82.1859 102.953C81.8578 103.062 81.5004 103.117 81.1137 103.117C80.7426 103.117 80.393 103.064 80.0648 102.959C79.7406 102.854 79.4535 102.701 79.2035 102.502C78.9535 102.299 78.7582 102.051 78.6176 101.758C78.477 101.461 78.4066 101.123 78.4066 100.744H79.4906C79.4906 101.041 79.5551 101.301 79.684 101.523C79.8168 101.746 80.0043 101.92 80.2465 102.045C80.4926 102.166 80.7816 102.227 81.1137 102.227C81.4457 102.227 81.7309 102.17 81.9691 102.057C82.2113 101.939 82.3969 101.764 82.5258 101.529C82.6586 101.295 82.725 101 82.725 100.645C82.725 100.289 82.6508 99.998 82.5023 99.7715C82.3539 99.541 82.143 99.3711 81.8695 99.2617C81.6 99.1484 81.2816 99.0918 80.9145 99.0918H80.141Z" fill="white"/>
</svg>
